<?xml version="1.0" encoding="UTF-8" standalone="no"?>
<svg
   xmlns:dc="http://purl.org/dc/elements/1.1/"
   xmlns:cc="http://creativecommons.org/ns#"
   xmlns:rdf="http://www.w3.org/1999/02/22-rdf-syntax-ns#"
   xmlns:svg="http://www.w3.org/2000/svg"
   xmlns="http://www.w3.org/2000/svg"
   version="1.1"
   id="svg78"
   width="332"
   height="308"
   viewBox="0 0 332 308">
  <metadata
     id="metadata84">
    <rdf:RDF>
      <cc:Work
         rdf:about="">
        <dc:format>image/svg+xml</dc:format>
        <dc:type
           rdf:resource="http://purl.org/dc/dcmitype/StillImage" />
        <dc:title></dc:title>
      </cc:Work>
    </rdf:RDF>
  </metadata>
  <defs
     id="defs82" />
  <g
     id="g86">
    <path
       style="fill:#f2f2f2;stroke-width:0.634251"
       d="M 169.37745,232.13157 50.081892,165.93203 40.413387,158.02479 C 32.490135,151.54484 29.53327,148.69941 24.032735,142.26142 18.090923,135.30691 16.631625,133.09657 11.317339,123.00203 5.9520871,112.81063 5.0613157,110.57638 2.9355129,101.9782 -0.56061524,87.837479 -0.83611714,80.744536 1.5891854,67.317336 L 3.57142,56.343138 10.841597,44.782228 18.111772,33.221318 26.132116,25.85464 C 37.198016,15.690628 45.11525,10.428017 56.644171,5.5732329 61.792224,3.4054089 68.078142,1.2645982 70.612892,0.81584923 L 75.221505,0 l 40.003575,22.195807 40.00358,22.19581 3.06382,12.779085 c 2.97786,12.420608 3.05089,13.076691 2.60299,23.386639 -0.3414,7.858393 -1.04881,13.23894 -2.72944,20.760749 l -2.26865,10.15321 -6.78944,12.23499 c -5.23936,9.44162 -7.44834,12.93842 -9.67542,15.31609 l -2.88601,3.08107 -9.76047,-5.45391 c -9.225,-5.15464 -9.93895,-5.66156 -13.0133,-9.23844 -3.57392,-4.15814 -3.41563,-3.07622 -1.89642,-12.96078 l 0.48796,-3.1747 -9.00796,-4.99868 -9.00794,-4.9987 -2.64763,6.69109 -2.647654,6.69108 0.654488,6.76954 c 0.555409,5.74475 1.119887,7.71687 3.728811,13.02707 2.973808,6.05293 3.261166,6.41221 8.789645,10.99032 l 5.7153,4.73283 100.52108,55.77519 100.52103,55.77518 -10.15576,18.3013 -10.15575,18.3013 z m -61.03637,-186.740323 -1.44692,-5.336465 -4.78621,-2.655961 -4.786213,-2.655966 -6.257265,1.768436 -6.257269,1.768428 -2.422693,4.36585 -2.422685,4.365828 1.571485,5.879026 1.571493,5.879021 4.700297,2.608294 4.700304,2.60829 5.510676,-0.962762 5.51064,-0.962746 3.13074,-5.666391 3.13077,-5.66638 z M 33.822152,97.453487 C 31.185047,90.827395 30.661441,88.503231 29.832484,79.743788 28.926626,70.171632 28.777572,69.584614 26.88873,68.150696 25.178401,66.852297 23.818061,66.606457 17.196814,66.39927 c -7.4189259,-0.232169 -7.7482,-0.172638 -8.9489504,1.617945 -1.1036394,1.645772 -1.0631955,3.297734 0.3526676,14.402647 1.2592489,9.876765 2.1985738,14.21239 4.4180408,20.392368 2.760452,7.68639 2.87749,7.88089 5.658376,9.40446 l 2.839583,1.55583 6.655528,-2.51687 c 9.42332,-3.56351 9.576239,-3.93708 5.65006,-13.802095 z"
       id="path100" />
    <path
       style="fill:#f2f2f2;stroke-width:0.634251"
       d="m 314.74786,306.63498 c -4.29556,0.941 -8.52235,1.43635 -9.1734,1.07508 -0.14516,-0.0805 4.30622,-8.382 9.89191,-18.44773 l 10.15573,-18.3013 1.91717,1.06383 c 1.70146,0.94419 2.02544,1.68387 2.87989,6.57458 l 0.96278,5.51066 -5.97398,10.74928 -5.97396,10.74923 z"
       id="path104" />
  </g>
</svg>
