<?xml version="1.0" encoding="UTF-8" standalone="no"?>
<svg
   xmlns:dc="http://purl.org/dc/elements/1.1/"
   xmlns:cc="http://creativecommons.org/ns#"
   xmlns:rdf="http://www.w3.org/1999/02/22-rdf-syntax-ns#"
   xmlns:svg="http://www.w3.org/2000/svg"
   xmlns="http://www.w3.org/2000/svg"
   version="1.1"
   id="svg78"
   width="332"
   height="308"
   viewBox="0 0 332 308">
  <metadata
     id="metadata84">
    <rdf:RDF>
      <cc:Work
         rdf:about="">
        <dc:format>image/svg+xml</dc:format>
        <dc:type
           rdf:resource="http://purl.org/dc/dcmitype/StillImage" />
        <dc:title></dc:title>
      </cc:Work>
    </rdf:RDF>
  </metadata>
  <defs
     id="defs82" />
  <g
     id="g86">
    <path
       style="fill:#f2f2f2;stroke-width:0.484075"
       d="m 106.77078,252.15276 c -0.0264,-17.50539 -0.20348,-58.83937 -0.39364,-91.8533 l -0.34579,-60.02534 -2.28271,-3.967184 C 100.36406,90.42477 95.533846,86.181084 89.286144,83.600576 85.707535,82.12249 83.876849,81.63721 81.879493,81.63721 h -2.653136 v 7.664932 7.664925 l 4.23566,2.014154 4.235664,2.014139 1.575238,3.51198 1.575249,3.51198 -0.001,8.24907 -10e-4,8.24905 -3.104929,0.82736 c -2.486406,0.66249 -5.249448,0.82733 -13.867561,0.82733 H 63.110552 l -7.510731,-2.21496 c -5.653705,-1.66732 -9.376312,-3.15041 -15.056069,-5.99833 -7.28843,-3.65454 -7.787541,-4.00354 -14.658707,-10.24997 l -7.113367,-6.46662 0.0011,-35.821565 0.0011,-35.821578 5.80523,-5.324829 c 5.16106,-4.733966 6.652999,-5.784348 13.445293,-9.465982 5.322846,-2.885147 9.903609,-4.9285526 15.103181,-6.73729 L 60.590762,5.4748643 71.571407,4.7654753 82.552051,4.0560862 90.46221,6.734936 c 10.43392,3.533544 13.99509,5.7018 22.41951,13.650318 5.61761,5.300259 7.15532,7.093123 10.60625,12.366168 5.72794,8.752272 6.20481,9.650291 8.99421,16.936813 2.03591,5.318281 2.85301,8.427722 4.38861,16.7006 l 1.88691,10.165583 0.005,103.713142 0.005,103.71316 H 122.79356 106.81905 Z M 52.308902,69.380896 55.022588,65.837938 V 62.25217 58.666396 l -3.49743,-3.520928 -3.497432,-3.520931 H 44.21696 40.406194 l -3.341462,3.225906 -3.34146,3.225908 0.0022,4.398279 0.0022,4.398281 2.698906,3.025471 2.698907,3.02547 h 5.23489 5.234888 l 2.71375,-3.542956 z m 57.277458,-28.331423 4.73548,-3.313932 0.14669,-2.505957 0.14669,-2.505957 -4.33651,-4.950787 c -3.4465,-3.934712 -5.92304,-6.118144 -12.066781,-10.638673 -6.507416,-4.788115 -8.007264,-5.687886 -9.481274,-5.687886 -1.743826,0 -1.761939,0.0218 -4.417464,5.316765 -1.850514,3.689831 -2.661814,5.874712 -2.651311,7.140113 0.01491,1.800576 0.09711,1.877746 6.584016,6.180023 6.027045,3.997328 6.894219,4.76571 10.513482,9.315679 2.868002,3.605515 4.237622,4.959757 5.018082,4.961774 0.59039,0.0015 3.20441,-1.488499 5.8089,-3.311162 z"
       id="path98" />
    <path
       style="fill:#f2f2f2;stroke-width:0.484075"
       d="M 196.33516,179.85228 V 75.723851 l 1.69643,-9.380645 c 1.39021,-7.68735 2.19412,-10.714388 4.45355,-16.769393 2.44069,-6.540763 3.37536,-8.333195 8.14398,-15.618028 4.8144,-7.354729 5.97557,-8.776604 10.92637,-13.379433 8.14219,-7.5699 12.77369,-10.380489 22.63259,-13.7344409 l 8.05779,-2.741216 10.40762,0.5704507 10.40762,0.5704518 7.88638,2.6243307 c 10.88106,3.6208697 17.32509,6.9555897 24.83447,12.8516267 3.35319,2.632778 7.10974,6.034923 8.34791,7.560323 l 2.25117,2.773456 0.002,34.916453 0.002,34.916453 -7.39359,6.77714 c -7.18619,6.58702 -7.59699,6.87872 -14.64328,10.39789 -5.37078,2.68237 -9.2235,4.20286 -14.86563,5.86681 l -7.61597,2.24605 h -10.67943 c -8.24123,0 -11.3929,-0.17921 -13.8044,-0.78495 l -3.12495,-0.78498 0.0251,-8.53347 c 0.0237,-8.06529 0.0976,-8.72948 1.34614,-12.10579 1.45143,-3.92498 0.78803,-3.41866 7.94715,-6.065347 l 2.29936,-0.850053 v -7.862685 -7.862691 l -5.44584,0.710991 -5.44585,0.710991 -4.27532,2.943738 c -3.62811,2.4981 -4.73517,3.605142 -7.31282,7.31276 -2.93818,4.226173 -3.07153,4.550999 -4.0794,9.935886 l -1.04194,5.56686 0.004,87.73866 0.004,87.73867 H 212.30789 196.3334 Z m 102.01889,-109.888606 3.02547,-2.941885 v -4.177696 -4.177697 l -3.49744,-3.520928 -3.49742,-3.520931 h -3.81078 -3.81076 l -3.34146,3.225906 -3.34145,3.225908 v 4.102709 4.102708 l 2.68327,3.321042 2.68326,3.321042 4.94092,-0.0091 4.94091,-0.0091 z M 236.01334,39.513133 c 3.44537,-4.213732 4.80251,-5.423872 10.3412,-9.220968 6.05258,-4.149386 6.38913,-4.466249 6.64657,-6.257804 0.23311,-1.622236 -0.1066,-2.621111 -2.42038,-7.116576 -2.59251,-5.037051 -2.75418,-5.234748 -4.39381,-5.37297 -1.50703,-0.127043 -2.5945,0.511718 -9.48111,5.569085 -6.12499,4.49803 -8.67054,6.730509 -11.97286,10.500318 -4.10728,4.688702 -4.19375,4.838845 -4.18067,7.258913 l 0.0133,2.471181 4.14438,3.509548 c 5.86788,4.969039 6.17381,4.932751 11.30332,-1.340727 z"
       id="path100" />
    <path
       style="fill:#f2f2f2;stroke-width:0.484075"
       d="m 110.08617,304.66158 c -3.00428,-2.32313 -3.26753,-2.67299 -3.26753,-4.34265 v -1.81595 h 16.00244 16.00241 l -1.35913,2.43056 c -0.89429,1.59929 -2.29602,3.08931 -4.09848,4.35669 l -2.73937,1.9261 -8.63642,-0.014 -8.63641,-0.014 z"
       id="path102" />
    <path
       style="fill:#f2f2f2;stroke-width:0.484075"
       d="m 200.4498,304.4571 c -2.21876,-2.51819 -4.11464,-5.15552 -4.11464,-5.72379 0,-0.12668 7.18851,-0.23033 15.97448,-0.23033 h 15.9745 v 1.67339 c 0,1.48514 -0.37364,1.97528 -3.32106,4.35668 l -3.32103,2.68328 -9.38595,-0.006 -9.38593,-0.006 z"
       id="path104" />
  </g>
</svg>
